# xmcd CD database file
#
# Track frame offsets:
#	150
#	11785
#	20067
#	40865
#	50995
#	61657
#	81497
#	92797
#	108060
#	130597
#	142952
#	157350
#
# Disc length: 2300 seconds
#
# Revision: 0
# Processed by: cddbd v1.5.1PL0 Copyright (c) Steve Scherf et al.
# Submitted via: CDex 1.51
#
DISCID=a208fa0c
DTITLE=Various Artist - A Date with RIVERSIDE
DYEAR=1957
DGENRE=Jazz
TTITLE0=When the Saints Go Marching In  [CHAUNCEY GRAY Orchestra]
TTITLE1=Drill, Ye Tarriers  [BOB GIBSON]
TTITLE2=Serenade to a Bus Seat  [CLARK TERRY]
TTITLE3=Wonderful One  [MUNDELL LOWE]
TTITLE4=Miss Lily White  [GEOFFREY HOLDER]
TTITLE5=Make Me a Pallet on the Floor  [GIN BOTTLE SEVEN]
TTITLE6=I've Told Every Little Star  [KENNY DREW]
TTITLE7=Riddle Me This  [JEAN RITCHIE and OSCAR BRAND]
TTITLE8=Down by the Riverside  [GEORGE LEWIS]
TTITLE9=Just One of Those Things  [LENNY HERMAN Orchestra]
TTITLE10=Casey Jones  [ED McCURDY]
TTITLE11=Think Deep  [COLEMAN HAWKINS]
EXTD=YEAR: 1957
EXTT0=
EXTT1=
EXTT2=
EXTT3=
EXTT4=
EXTT5=
EXTT6=
EXTT7=
EXTT8=
EXTT9=
EXTT10=
EXTT11=
PLAYORDER=
